<svg xmlns="http://www.w3.org/2000/svg" style="display: none;" role="img">
  <defs>
    <!-- LIGHT/DARK THEME -->
    <symbol id="icon-sun" viewBox="0 0 24 24">
      <desc>Sun Icon</desc>
      <path d="M12,7A5,5 0 0,1 17,12A5,5 0 0,1 12,17A5,5 0 0,1 7,12A5,5 0 0,1 12,7M12,9A3,3 0 0,0 9,12A3,3 0 0,0 12,15A3,3 0 0,0 15,12A3,3 0 0,0 12,9M12,2L14.39,5.42C13.65,5.15 12.84,5 12,5C11.16,5 10.35,5.15 9.61,5.42L12,2M3.34,7L7.5,6.65C6.9,7.16 6.36,7.78 5.94,8.5C5.5,9.24 5.25,10 5.11,10.79L3.34,7M3.36,17L5.12,13.23C5.26,14 5.53,14.78 5.95,15.5C6.37,16.24 6.91,16.86 7.5,17.37L3.36,17M20.65,7L18.88,10.79C18.74,10 18.47,9.23 18.05,8.5C17.63,7.78 17.1,7.15 16.5,6.64L20.65,7M20.64,17L16.5,17.36C17.09,16.85 17.62,16.22 18.04,15.5C18.46,14.77 18.73,14 18.87,13.21L20.64,17M12,22L9.59,18.56C10.33,18.83 11.14,19 12,19C12.82,19 13.63,18.83 14.37,18.56L12,22Z" />
    </symbol>
    <symbol id="icon-moon" viewBox="0 0 24 24">
      <desc>Moon Icon</desc>
      <path d="M17.75,4.09L15.22,6.03L16.13,9.09L13.5,7.28L10.87,9.09L11.78,6.03L9.25,4.09L12.44,4L13.5,1L14.56,4L17.75,4.09M21.25,11L19.61,12.25L20.2,14.23L18.5,13.06L16.8,14.23L17.39,12.25L15.75,11L17.81,10.95L18.5,9L19.19,10.95L21.25,11M18.97,15.95C19.8,15.87 20.69,17.05 20.16,17.8C19.84,18.25 19.5,18.67 19.08,19.07C15.17,23 8.84,23 4.94,19.07C1.03,15.17 1.03,8.83 4.94,4.93C5.34,4.53 5.76,4.17 6.21,3.85C6.96,3.32 8.14,4.21 8.06,5.04C7.79,7.9 8.75,10.87 10.95,13.06C13.14,15.26 16.1,16.22 18.97,15.95M17.33,17.97C14.5,17.81 11.7,16.64 9.53,14.5C7.36,12.31 6.2,9.5 6.04,6.68C3.23,9.82 3.34,14.64 6.35,17.66C9.37,20.67 14.19,20.78 17.33,17.97Z" />
    </symbol>
    <!-- VSCODE ICONS -->
    <symbol id="icon-debugger" viewBox="0 0 512 512">
      <desc>Debugger Icon</desc>
      <path d="M318.865 181.874c-8.284 0-15 6.716-15 15v9.252h-7.917c-7.53-14.398-22.606-24.252-39.948-24.252s-32.418 9.854-39.948 24.252h-7.917v-9.252c0-8.284-6.716-15-15-15s-15 6.716-15 15v24.252c0 8.284 6.716 15 15 15h17.806v39.748h-17.806c-8.284 0-15 6.716-15 15v24.252c0 8.284 6.716 15 15 15s15-6.716 15-15v-9.252h8.047c7.574 14.261 22.577 23.999 39.818 23.999s32.245-9.738 39.818-23.999h8.047v9.252c0 8.284 6.716 15 15 15s15-6.716 15-15v-24.252c0-8.284-6.716-15-15-15H301.06v-39.748h17.806c8.284 0 15-6.716 15-15v-24.252c-.001-8.284-6.717-15-15.001-15zM271 282.607c0-8.284-6.716-15-15-15s-15 6.716-15 15l-.06-55.674c0-8.304 6.756-15.06 15.06-15.06s15.06 6.756 15.06 15.06z M497 241h-30.666C458.965 136.654 375.346 53.035 271 45.666V15c0-8.284-6.716-15-15-15s-15 6.716-15 15v30.666C136.654 53.035 53.035 136.654 45.666 241H15c-8.284 0-15 6.716-15 15s6.716 15 15 15h30.666C53.035 375.346 136.654 458.965 241 466.334V497c0 8.284 6.716 15 15 15s15-6.716 15-15v-30.666c104.346-7.37 187.965-90.989 195.334-195.334H497c8.284 0 15-6.716 15-15s-6.716-15-15-15zM271 436.247v-19.428c0-8.284-6.716-15-15-15s-15 6.716-15 15v19.428C153.205 429.005 82.995 358.795 75.753 271h19.428c8.284 0 15-6.716 15-15s-6.716-15-15-15H75.753C82.995 153.205 153.205 82.995 241 75.753v19.428c0 8.284 6.716 15 15 15s15-6.716 15-15V75.753C358.795 82.995 429.005 153.205 436.247 241h-19.428c-8.284 0-15 6.716-15 15s6.716 15 15 15h19.428C429.005 358.795 358.795 429.005 271 436.247z"/>
    </symbol>
    <symbol id="icon-extension-blocks" viewBox="0 0 24 24">
      <desc>Extension Blocks Icon</desc>
      <path stroke-linecap="round" stroke-linejoin="round" stroke-width="2" d="M4 6a2 2 0 012-2h2a2 2 0 012 2v2a2 2 0 01-2 2H6a2 2 0 01-2-2V6zM14 6a2 2 0 012-2h2a2 2 0 012 2v2a2 2 0 01-2 2h-2a2 2 0 01-2-2V6zM4 16a2 2 0 012-2h2a2 2 0 012 2v2a2 2 0 01-2 2H6a2 2 0 01-2-2v-2zM14 16a2 2 0 012-2h2a2 2 0 012 2v2a2 2 0 01-2 2h-2a2 2 0 01-2-2v-2z" />
    </symbol>
    <symbol id="icon-files" viewBox="0 0 24 24">
      <desc>Files Icon</desc>
      <path d="M15,7H20.5L15,1.5V7M8,0H16L22,6V18A2,2 0 0,1 20,20H8C6.89,20 6,19.1 6,18V2A2,2 0 0,1 8,0M4,4V22H20V24H4A2,2 0 0,1 2,22V4H4Z"/>
    </symbol>
    <symbol id="icon-search" viewBox="0 0 512 512">
      <desc>Search Icon</desc>
      <path d="M302.058 0C186.296 0 92.116 94.18 92.116 209.942c0 50.697 18.064 97.253 48.092 133.574L0 483.724 28.276 512l140.208-140.208c36.321 30.028 82.877 48.092 133.574 48.092C417.82 419.884 512 325.704 512 209.942S417.821 0 302.058 0zm0 379.895c-93.712 0-169.953-76.241-169.953-169.953S208.346 39.989 302.058 39.989s169.953 76.241 169.953 169.953-76.241 169.953-169.953 169.953z"/>
    </symbol>
    <symbol id="icon-source-control" viewBox="0 0 24 24">
      <desc>Source Control Icon</desc>
      <path d="M7.105 15.21A3.001 3.001 0 1 1 5 15.17V8.83a3.001 3.001 0 1 1 2 0V12c.836-.628 1.874-1 3-1h4a3.001 3.001 0 0 0 2.895-2.21 3.001 3.001 0 1 1 2.032.064A5.001 5.001 0 0 1 14 13h-4a3.001 3.001 0 0 0-2.895 2.21zM6 17a1 1 0 1 0 0 2 1 1 0 0 0 0-2zM6 5a1 1 0 1 0 0 2 1 1 0 0 0 0-2zm12 0a1 1 0 1 0 0 2 1 1 0 0 0 0-2z"/>
    </symbol>
    <symbol id="icon-close" viewBox="0 0 24 24">
      <desc>Close Icon</desc>
      <path d="M13.46,12L19,17.54V19H17.54L12,13.46L6.46,19H5V17.54L10.54,12L5,6.46V5H6.46L12,10.54L17.54,5H19V6.46L13.46,12Z" />
    </symbol>
    <!-- VSCODE -->
    <symbol id="icon-preview" viewBox="0 0 48 31">
			<desc>Eye Icon</desc>
			<path d="M24 7.727c-4.262 0-7.725 3.464-7.725 7.727S19.738 23.18 24 23.18s7.725-3.463 7.725-7.726S28.262 7.727 24 7.727zm-.586 5.435c-.959 0-1.758.8-1.758 1.759h-2.557c.053-2.398 1.971-4.317 4.315-4.317v2.558z" />
      <path d="M47.44 13.855C44.83 10.605 35.508 0 24 0 12.493 0 3.17 10.604.56 13.855c-.746.906-.746 2.238 0 3.197C3.17 20.302 12.492 30.907 24 30.907c11.507 0 20.83-10.604 23.44-13.855.747-.906.747-2.238 0-3.197zM24 26.645c-6.18 0-11.188-5.01-11.188-11.191 0-6.182 5.008-11.19 11.188-11.19 6.18 0 11.188 5.008 11.188 11.19 0 6.181-5.008 11.19-11.188 11.19z" />
		</symbol>
    <symbol id="icon-download" viewBox="0 0 956 943">
			<desc>Download Icon</desc>
			<path d="M0 852.98a90.007 90.007 0 0 1 89.98-90.018h776.04a90.02 90.02 0 0 1 0 180.038H89.98A90.008 90.008 0 0 1 0 852.98zm416.813-226.847l-234.15-234.25a89.98 89.98 0 1 1 127.272-127.227l80.583 80.517V90.02a89.982 89.982 0 1 1 179.963 0v255.153l75.587-75.616A90.015 90.015 0 1 1 773.34 396.884l-229.153 229.35c-4.5 5.1-10.5 9.2-16.1 12.8a84.43 84.43 0 0 1-15 7.6 92.67 92.67 0 0 1-28.494 5.8 94.087 94.087 0 0 1-15-.6c-20.286-2.296-38.082-11.898-52.78-25.7z"/>
		</symbol>
    <symbol id="icon-info" viewBox="0 0 24 24">
			<desc>Information Icon</desc>
			<svg fill="none" stroke="#FFF" stroke-linecap="round" stroke-linejoin="round" stroke-width="2" class="feather feather-info" viewBox="0 0 24 24"><circle cx="12" cy="12" r="10"/><path d="M12 16v-4M12 8h.01"/></svg>
		</symbol>
    <!-- FOOTER ICONS -->
    <symbol id="icon-git" viewBox="0 0 50 50">
      <desc>Git Icon</desc>
      <path fill="var(--var-xray)" d="M46.794 22.088L27.912 3.206C27.108 2.402 26.054 2 25 2s-2.108.402-2.912 1.206L18.354 6.94l4.624 4.624a3.992 3.992 0 014.85.607c1.316 1.316 1.509 3.316.607 4.85l4.543 4.543a3.992 3.992 0 014.85.607 4 4 0 01-5.657 5.657c-1.316-1.316-1.509-3.316-.607-4.85l-4.543-4.543c-.324.19-.666.33-1.021.421v12.285c1.722.446 3 1.997 3 3.859a4 4 0 01-8 0 3.991 3.991 0 013-3.859V18.857a3.962 3.962 0 01-1.828-1.028c-1.316-1.316-1.509-3.316-.607-4.85L16.94 8.354 3.206 22.088a4.117 4.117 0 000 5.823l18.882 18.882C22.892 47.598 23.946 48 25 48s2.108-.402 2.912-1.206l18.882-18.882a4.119 4.119 0 000-5.824z"/>
    </symbol>
    <symbol id="icon-github" viewBox="0 0 512 512">
      <desc>Github Icon</desc>
      <path d='M255.968 5.329C114.624 5.329 0 120.401 0 262.353c0 113.536 73.344 209.856 175.104 243.872 12.8 2.368 17.472-5.568 17.472-12.384 0-6.112-.224-22.272-.352-43.712-71.2 15.52-86.24-34.464-86.24-34.464-11.616-29.696-28.416-37.6-28.416-37.6-23.264-15.936 1.728-15.616 1.728-15.616 25.696 1.824 39.2 26.496 39.2 26.496 22.848 39.264 59.936 27.936 74.528 21.344 2.304-16.608 8.928-27.936 16.256-34.368-56.832-6.496-116.608-28.544-116.608-127.008 0-28.064 9.984-51.008 26.368-68.992-2.656-6.496-11.424-32.64 2.496-68 0 0 21.504-6.912 70.4 26.336 20.416-5.696 42.304-8.544 64.096-8.64 21.728.128 43.648 2.944 64.096 8.672 48.864-33.248 70.336-26.336 70.336-26.336 13.952 35.392 5.184 61.504 2.56 68 16.416 17.984 26.304 40.928 26.304 68.992 0 98.72-59.84 120.448-116.864 126.816 9.184 7.936 17.376 23.616 17.376 47.584 0 34.368-.32 62.08-.32 70.496 0 6.88 4.608 14.88 17.6 12.352C438.72 472.145 512 375.857 512 262.353 512 120.401 397.376 5.329 255.968 5.329z'/>
    </symbol>
    <symbol id="icon-email" viewBox="0 0 184 184" >>
      <desc>Email Icon</desc>
      <path d="M160.746 24.61H23.254C10.432 24.61 0 35.042 0 47.864v88.271c0 12.822 10.432 23.254 23.254 23.254h137.492c12.822 0 23.254-10.432 23.254-23.254V47.864c0-12.822-10.432-23.254-23.254-23.254zm-3.633 15L92 89.909 26.887 39.61h130.226zm3.633 104.78H23.254c-4.551 0-8.254-3.703-8.254-8.254V49.382l72.415 55.94c1.35 1.043 2.968 1.564 4.585 1.564s3.235-.521 4.585-1.564L169 49.382v86.753c0 4.552-3.703 8.255-8.254 8.255z"/>
    </symbol>
    <symbol id="icon-codepen" viewBox="0 0 24 24">
      <desc>Codepen Icon</desc>
      <path d="M.455 16.512l10.969 7.314c.374.23.774.233 1.152 0l10.969-7.314c.281-.187.455-.522.455-.857V8.343c0-.335-.174-.67-.455-.857L12.576.173a1.044 1.044 0 00-1.152 0L.455 7.486A1.048 1.048 0 000 8.343v7.312c0 .335.174.67.455.857zm10.514 4.528l-8.076-5.384 3.603-2.411 4.473 2.987zm2.062 0v-4.808l4.473-2.987 3.603 2.411zm8.907-7.314l-2.585-1.727 2.585-1.728zM13.031 2.959l8.076 5.384-3.603 2.411-4.473-2.987zM12 9.561l3.643 2.438L12 14.437l-3.643-2.438zm-1.031-6.602v4.808l-4.473 2.987-3.603-2.411zm-8.906 7.314v-.001L4.648 12l-2.585 1.728z"/>
    </symbol>
    <symbol id="icon-linkedin" viewBox="0 0 382 382">
      <desc>Linkedin Icon</desc>
      <path d="M347.445 0H34.555C15.471 0 0 15.471 0 34.555v312.889C0 366.529 15.471 382 34.555 382h312.889C366.529 382 382 366.529 382 347.444V34.555C382 15.471 366.529 0 347.445 0zM118.207 329.844c0 5.554-4.502 10.056-10.056 10.056H65.345c-5.554 0-10.056-4.502-10.056-10.056V150.403c0-5.554 4.502-10.056 10.056-10.056h42.806c5.554 0 10.056 4.502 10.056 10.056v179.441zM86.748 123.432c-22.459 0-40.666-18.207-40.666-40.666S64.289 42.1 86.748 42.1s40.666 18.207 40.666 40.666-18.206 40.666-40.666 40.666zM341.91 330.654a9.247 9.247 0 01-9.246 9.246H286.73a9.247 9.247 0 01-9.246-9.246v-84.168c0-12.556 3.683-55.021-32.813-55.021-28.309 0-34.051 29.066-35.204 42.11v97.079a9.246 9.246 0 01-9.246 9.246h-44.426a9.247 9.247 0 01-9.246-9.246V149.593a9.247 9.247 0 019.246-9.246h44.426a9.247 9.247 0 019.246 9.246v15.655c10.497-15.753 26.097-27.912 59.312-27.912 73.552 0 73.131 68.716 73.131 106.472v86.846z"/>
    </symbol>
  </defs>
</svg>
